HIERARCHY
ROOT Hips
{
  OFFSET 0.0000 0.0000 0.0000
  CHANNELS 6 Xposition Yposition Zposition Zrotation Xrotation Yrotation
  JOINT LeftHip
  {
    OFFSET 3.7500 -0.0000 0.0000
    CHANNELS 3 Zrotation Xrotation Yrotation
    JOINT LeftKnee
    {
      OFFSET 0.0000 -15.5000 0.0000
      CHANNELS 3 Zrotation Xrotation Yrotation
      JOINT LeftAnkle
      {
        OFFSET 0.0000 -15.5000 -0.0000
        CHANNELS 3 Zrotation Xrotation Yrotation
        End Site
        {
          OFFSET 0.0000 -2.5296 0.0000
        }
      }
    }
  }
  JOINT RightHip
  {
    OFFSET -3.7500 0.0000 0.0000
    CHANNELS 3 Zrotation Xrotation Yrotation
    JOINT RightKnee
    {
      OFFSET 0.0000 -15.5000 0.0000
      CHANNELS 3 Zrotation Xrotation Yrotation
      JOINT RightAnkle
      {
        OFFSET 0.0000 -15.5000 0.0000
        CHANNELS 3 Zrotation Xrotation Yrotation
        End Site
        {
          OFFSET 0.0000 -2.5296 0.0000
        }
      }
    }
  }
  JOINT Chest
  {
    OFFSET -0.0000 4.5700 -0.0000
    CHANNELS 3 Zrotation Xrotation Yrotation
    JOINT Chest2
    {
      OFFSET 0.0000 8.1184 0.0000
      CHANNELS 3 Zrotation Xrotation Yrotation
      JOINT LeftCollar
      {
        OFFSET 1.5000 9.7058 0.5000
        CHANNELS 3 Zrotation Xrotation Yrotation
        JOINT LeftShoulder
        {
          OFFSET 5.2500 0.0000 0.0000
          CHANNELS 3 Zrotation Xrotation Yrotation
          JOINT LeftElbow
          {
            OFFSET 0.0000 -11.0000 0.0000
            CHANNELS 3 Zrotation Xrotation Yrotation
            JOINT LeftWrist
            {
              OFFSET 0.0000 -9.8200 0.0000
              CHANNELS 3 Zrotation Xrotation Yrotation
              End Site
              {
                OFFSET 0.0000 -7.0000 0.0000
              }
            }
          }
        }
      }
      JOINT RightCollar
      {
        OFFSET -1.5000 9.7058 0.5000
        CHANNELS 3 Zrotation Xrotation Yrotation
        JOINT RightShoulder
        {
          OFFSET -5.2500 -0.0000 0.0000
          CHANNELS 3 Zrotation Xrotation Yrotation
          JOINT RightElbow
          {
            OFFSET 0.0000 -11.0000 0.0000
            CHANNELS 3 Zrotation Xrotation Yrotation
            JOINT RightWrist
            {
              OFFSET 0.0000 -9.8200 -0.0000
              CHANNELS 3 Zrotation Xrotation Yrotation
              End Site
              {
                OFFSET -0.0000 -7.0000 0.0000
              }
            }
          }
        }
      }
      JOINT Neck
      {
        OFFSET 0.0000 9.5000 0.0000
        CHANNELS 3 Zrotation Xrotation Yrotation
        JOINT Head
        {
          OFFSET -0.0000 5.2180 0.0000
          CHANNELS 3 Zrotation Xrotation Yrotation
          End Site
          {
            OFFSET 0.0000 4.1400 0.0000
          }
        }
      }
    }
  }
}
MOTION
Frames:	34
Frame Time:	0.033333
0.7987 36.4789 -60.0089 0.04 0.00 0.00 -1.72 -1.48 3.26 0.07 4.02 -0.21 3.41 -2.57 0.04 1.45 -1.72 -4.96 -1.21 5.20 5.08 -0.74 -3.57 -0.13 -0.81 -0.55 1.48 0.67 -1.14 1.47 -17.16 -0.08 5.74 25.73 -2.20 7.23 0.46 -9.08 0.06 21.96 4.58 -26.92 15.11 0.62 -3.91 -21.65 -4.19 -10.98 -2.09 -6.97 -0.25 -19.95 -3.86 25.39 0.53 10.91 -0.01 -0.04 -9.25 0.01 
0.7996 36.4790 -60.0046 -0.00 -0.06 -0.03 -1.68 -1.43 3.31 0.06 4.07 -0.21 3.51 -2.58 0.04 1.47 -1.64 -4.95 -1.19 5.32 5.44 -1.60 -3.86 -0.15 -0.72 -0.32 1.49 0.73 -1.47 1.48 -17.38 -0.02 5.59 25.92 -1.94 7.33 0.42 -9.26 0.05 21.72 4.75 -26.53 15.09 0.63 -3.85 -21.64 -4.03 -10.69 -2.00 -7.08 -0.24 -20.75 -3.04 25.87 0.45 11.12 -0.03 -0.08 -9.36 -0.03 
0.8077 36.4713 -60.0004 0.13 -0.02 -0.13 -1.88 -1.46 3.21 0.15 4.07 -0.02 3.54 -2.59 0.05 1.29 -1.69 -4.99 -1.13 5.37 5.92 -2.52 -3.96 -0.17 -0.85 -0.31 1.56 0.82 -1.55 1.54 -17.44 0.02 5.50 25.92 -1.85 7.39 0.40 -9.44 0.05 20.94 5.06 -26.22 14.98 0.61 -3.92 -21.60 -3.91 -10.76 -1.99 -7.17 -0.24 -20.63 -3.00 25.60 0.36 11.13 -0.03 -0.02 -9.32 -0.11 
0.8177 36.4686 -60.0001 0.22 0.04 -0.14 -2.05 -1.58 3.10 0.23 4.16 0.10 3.60 -2.60 0.06 1.17 -1.75 -5.02 -1.10 5.34 6.03 -2.81 -3.89 -0.17 -0.84 -0.17 1.60 0.76 -1.85 1.59 -17.46 0.10 5.28 25.97 -1.61 7.38 0.34 -9.62 0.04 20.21 5.26 -25.79 14.91 0.57 -4.03 -21.61 -3.73 -11.02 -1.96 -7.27 -0.24 -20.30 -2.98 24.96 0.38 11.19 -0.06 -0.08 -9.29 -0.16 
0.8230 36.4776 -59.9957 0.22 0.13 -0.20 -2.06 -1.66 3.06 0.21 4.15 0.17 3.66 -2.57 0.06 1.15 -1.87 -5.06 -1.10 5.40 5.87 -2.09 -3.78 -0.15 -0.72 -0.09 1.66 0.64 -2.08 1.66 -17.40 0.15 5.12 25.91 -1.46 7.47 0.33 -9.59 0.04 19.82 5.21 -25.57 14.89 0.54 -4.11 -21.62 -3.61 -11.07 -1.88 -7.30 -0.23 -20.28 -2.64 24.56 0.48 11.22 -0.12 -0.24 -9.23 -0.21 
0.8299 36.4949 -59.9917 0.12 0.20 -0.22 -1.98 -1.71 3.01 0.21 4.14 0.26 3.70 -2.55 0.05 1.22 -1.99 -5.12 -1.12 5.55 5.53 -0.80 -3.62 -0.12 -0.49 -0.11 1.68 0.51 -2.11 1.67 -17.37 0.17 5.06 25.88 -1.45 7.50 0.32 -9.44 0.04 19.79 5.00 -25.31 14.92 0.52 -4.15 -21.67 -3.59 -11.07 -1.85 -7.21 -0.22 -20.26 -2.58 24.56 0.58 11.26 -0.16 -0.37 -9.25 -0.22 
0.8383 36.5102 -59.9873 0.03 0.19 -0.19 -1.94 -1.71 2.95 0.26 4.13 0.31 3.68 -2.53 0.06 1.29 -2.02 -5.19 -1.14 5.62 5.08 0.31 -3.43 -0.10 -0.26 -0.08 1.66 0.43 -2.13 1.66 -17.51 0.19 5.01 26.00 -1.42 7.44 0.31 -9.40 0.04 20.16 4.97 -25.21 14.89 0.52 -4.16 -21.65 -3.54 -11.10 -1.89 -6.97 -0.22 -20.15 -3.16 24.89 0.53 11.28 -0.16 -0.37 -9.31 -0.25 
0.8471 36.5154 -59.9884 -0.01 0.21 -0.15 -1.92 -1.75 2.91 0.26 4.18 0.27 3.72 -2.54 0.06 1.28 -2.01 -5.28 -1.08 5.61 4.87 0.64 -3.32 -0.09 -0.16 -0.07 1.64 0.38 -2.16 1.64 -17.50 0.20 4.97 25.93 -1.40 7.49 0.35 -9.35 0.04 20.74 4.79 -25.16 14.87 0.50 -4.21 -21.61 -3.44 -11.19 -2.01 -6.81 -0.23 -19.85 -3.84 25.58 0.57 11.33 -0.18 -0.37 -9.32 -0.34 
0.8510 36.5145 -59.9900 -0.01 0.20 -0.10 -1.91 -1.77 2.93 0.24 4.22 0.21 3.74 -2.55 0.05 1.26 -1.98 -5.32 -1.06 5.57 4.82 0.56 -3.27 -0.09 -0.16 -0.06 1.61 0.38 -2.16 1.61 -17.35 0.16 5.07 25.73 -1.46 7.57 0.40 -9.21 0.05 21.19 4.58 -25.29 14.86 0.50 -4.22 -21.58 -3.40 -11.24 -2.05 -6.76 -0.23 -19.79 -4.12 25.72 0.59 11.35 -0.17 -0.36 -9.33 -0.35 
0.8575 36.5096 -59.9855 0.04 0.16 -0.08 -1.94 -1.72 2.95 0.21 4.23 0.13 3.71 -2.58 0.05 1.19 -1.92 -5.34 -1.05 5.56 5.03 0.30 -3.35 -0.09 -0.20 -0.03 1.60 0.41 -2.15 1.59 -17.33 0.13 5.14 25.64 -1.48 7.66 0.45 -9.17 0.06 21.41 4.44 -25.48 14.81 0.50 -4.21 -21.56 -3.40 -11.24 -2.04 -6.77 -0.23 -19.83 -4.08 25.51 0.57 11.39 -0.16 -0.34 -9.32 -0.35 
0.8683 36.5086 -59.9827 0.08 0.19 -0.03 -2.02 -1.74 2.87 0.24 4.22 0.16 3.72 -2.57 0.05 1.12 -1.95 -5.39 -1.02 5.58 5.25 0.17 -3.40 -0.09 -0.13 -0.12 1.58 0.30 -2.06 1.58 -17.32 0.15 5.10 25.66 -1.44 7.63 0.44 -9.24 0.06 21.47 4.38 -25.38 14.84 0.51 -4.20 -21.57 -3.42 -11.22 -2.04 -6.75 -0.23 -19.82 -4.05 25.47 0.60 11.37 -0.17 -0.30 -9.31 -0.33 
0.8786 36.5096 -59.9763 0.11 0.17 0.01 -2.08 -1.69 2.82 0.25 4.15 0.19 3.74 -2.51 0.05 1.05 -1.92 -5.46 -1.00 5.58 5.34 0.09 -3.47 -0.09 -0.13 -0.15 1.59 0.25 -2.05 1.59 -17.24 0.13 5.13 25.59 -1.47 7.68 0.45 -9.16 0.06 21.50 4.24 -25.42 14.89 0.50 -4.22 -21.61 -3.39 -11.27 -2.05 -6.75 -0.23 -19.82 -4.01 25.56 0.64 11.45 -0.18 -0.24 -9.43 -0.36 
0.8875 36.5090 -59.9728 0.12 0.13 0.03 -2.12 -1.59 2.81 0.25 4.04 0.23 3.74 -2.42 0.05 1.03 -1.87 -5.48 -1.01 5.59 5.30 0.04 -3.53 -0.09 -0.11 -0.12 1.60 0.17 -2.04 1.60 -17.08 0.10 5.21 25.46 -1.52 7.69 0.45 -9.04 0.06 21.57 4.01 -25.36 14.90 0.51 -4.19 -21.59 -3.39 -11.31 -2.05 -6.74 -0.23 -19.76 -4.02 25.42 0.69 11.45 -0.18 -0.24 -9.48 -0.37 
0.8900 36.5098 -59.9791 0.13 0.15 0.09 -2.11 -1.63 2.83 0.22 4.03 0.18 3.70 -2.35 0.05 1.02 -1.92 -5.47 -1.01 5.64 5.23 -0.02 -3.57 -0.10 -0.12 -0.13 1.58 0.18 -2.02 1.58 -17.03 0.07 5.27 25.42 -1.55 7.60 0.44 -9.04 0.05 21.59 4.06 -25.48 14.94 0.51 -4.19 -21.64 -3.40 -11.30 -2.04 -6.76 -0.23 -19.72 -3.94 25.29 0.70 11.33 -0.19 -0.26 -9.41 -0.38 
0.8901 36.5066 -59.9930 0.09 0.20 0.18 -2.05 -1.74 2.86 0.20 4.11 0.02 3.64 -2.49 0.05 1.07 -2.01 -5.42 -1.02 5.69 5.06 -0.01 -3.63 -0.10 -0.16 -0.13 1.57 0.31 -2.08 1.57 -17.08 0.09 5.23 25.41 -1.51 7.56 0.45 -9.06 0.06 21.59 4.18 -25.83 14.87 0.51 -4.19 -21.62 -3.39 -11.34 -2.04 -6.75 -0.23 -19.82 -3.97 25.23 0.61 11.28 -0.18 -0.23 -9.39 -0.43 
0.8948 36.5068 -60.0028 0.06 0.22 0.25 -1.99 -1.83 2.88 0.16 4.21 -0.11 3.66 -2.52 0.05 1.09 -2.03 -5.43 -1.00 5.64 4.86 0.40 -3.56 -0.09 -0.16 -0.11 1.55 0.36 -2.10 1.55 -17.14 0.10 5.21 25.48 -1.50 7.56 0.46 -9.06 0.06 21.73 4.18 -25.91 14.84 0.50 -4.22 -21.61 -3.42 -11.36 -2.05 -6.75 -0.23 -19.80 -3.95 25.34 0.58 11.18 -0.17 -0.18 -9.35 -0.44 
0.9040 36.5036 -60.0026 0.06 0.19 0.30 -2.00 -1.81 2.86 0.16 4.24 -0.21 3.64 -2.60 0.05 1.06 -1.96 -5.51 -0.97 5.53 4.72 0.79 -3.60 -0.07 -0.18 -0.08 1.53 0.34 -2.12 1.53 -17.10 0.11 5.19 25.51 -1.47 7.48 0.43 -9.01 0.05 21.90 4.26 -25.76 14.86 0.50 -4.21 -21.62 -3.43 -11.40 -2.08 -6.76 -0.24 -19.70 -3.94 25.40 0.61 11.13 -0.19 -0.21 -9.43 -0.47 
0.9091 36.5039 -60.0056 0.07 0.22 0.36 -1.97 -1.88 2.88 0.10 4.30 -0.29 3.56 -2.62 0.04 1.08 -1.99 -5.50 -1.02 5.50 4.56 1.00 -3.61 -0.07 -0.22 -0.06 1.52 0.38 -2.18 1.52 -17.14 0.12 5.16 25.60 -1.42 7.48 0.43 -8.98 0.05 22.06 4.17 -25.79 14.85 0.49 -4.26 -21.60 -3.42 -11.44 -2.11 -6.75 -0.24 -19.59 -4.02 25.54 0.62 11.08 -0.22 -0.29 -9.53 -0.57 
0.9100 36.5003 -59.9963 0.06 0.24 0.40 -1.91 -1.87 2.92 0.06 4.31 -0.44 3.50 -2.69 0.04 1.09 -2.00 -5.51 -1.02 5.55 4.43 0.99 -3.68 -0.07 -0.28 -0.08 1.51 0.47 -2.21 1.50 -17.17 0.11 5.18 25.68 -1.35 7.48 0.40 -9.03 0.05 22.11 4.27 -25.56 14.84 0.50 -4.25 -21.60 -3.38 -11.44 -2.12 -6.80 -0.24 -19.58 -3.94 25.58 0.60 11.02 -0.21 -0.32 -9.55 -0.54 
0.9095 36.4987 -59.9789 0.00 0.26 0.34 -1.82 -1.83 2.99 -0.00 4.28 -0.48 3.49 -2.82 0.04 1.13 -2.08 -5.52 -1.01 5.73 4.29 1.10 -3.71 -0.07 -0.17 -0.13 1.55 0.36 -2.16 1.55 -17.09 0.12 5.16 25.72 -1.30 7.56 0.40 -9.06 0.05 22.02 4.39 -25.42 14.92 0.50 -4.23 -21.64 -3.37 -11.41 -2.08 -6.82 -0.24 -19.64 -3.81 25.31 0.67 10.98 -0.22 -0.40 -9.63 -0.49 
0.9176 36.4996 -59.9507 0.00 0.27 0.29 -1.85 -1.76 2.95 0.02 4.23 -0.42 3.52 -2.83 0.04 1.09 -2.10 -5.58 -0.98 5.88 4.20 1.25 -3.79 -0.06 -0.09 -0.20 1.58 0.30 -2.09 1.58 -17.02 0.13 5.15 25.71 -1.24 7.75 0.45 -9.04 0.06 21.82 4.44 -25.58 14.94 0.51 -4.22 -21.66 -3.36 -11.44 -2.09 -6.81 -0.24 -19.70 -3.74 25.31 0.61 10.94 -0.20 -0.34 -9.66 -0.43 
0.9173 36.5024 -59.9109 -0.01 0.22 0.32 -1.82 -1.65 2.99 0.00 4.24 -0.46 3.54 -2.88 0.04 1.13 -2.00 -5.57 -1.04 5.94 4.06 1.30 -3.81 -0.07 -0.12 -0.18 1.58 0.37 -2.12 1.58 -17.00 0.12 5.15 25.72 -1.14 7.86 0.47 -8.98 0.06 21.82 4.48 -25.79 14.95 0.51 -4.21 -21.69 -3.28 -11.54 -2.13 -6.83 -0.25 -19.61 -3.64 25.62 0.58 10.96 -0.17 -0.31 -9.59 -0.36 
0.9073 36.5026 -59.8673 -0.07 0.22 0.36 -1.72 -1.59 3.09 -0.03 4.29 -0.61 3.53 -2.98 0.04 1.24 -1.91 -5.48 -1.09 5.96 3.96 1.14 -3.84 -0.07 -0.12 -0.20 1.57 0.44 -2.16 1.57 -16.99 0.12 5.16 25.74 -1.09 7.84 0.46 -8.89 0.06 21.94 4.40 -25.76 14.91 0.49 -4.27 -21.67 -3.22 -11.58 -2.13 -6.79 -0.25 -19.66 -3.52 25.74 0.56 11.01 -0.16 -0.26 -9.51 -0.35 
0.8972 36.5024 -59.8148 -0.13 0.20 0.37 -1.60 -1.46 3.25 -0.10 4.27 -0.76 3.51 -3.04 0.04 1.36 -1.78 -5.40 -1.13 5.95 3.89 1.12 -3.87 -0.08 -0.19 -0.23 1.57 0.63 -2.16 1.57 -17.07 0.13 5.13 25.78 -1.03 7.84 0.45 -8.88 0.06 21.99 4.46 -25.71 14.86 0.49 -4.27 -21.70 -3.16 -11.59 -2.11 -6.77 -0.24 -19.75 -3.50 25.71 0.49 11.05 -0.15 -0.29 -9.42 -0.38 
0.8953 36.5020 -59.7672 -0.15 0.21 0.42 -1.55 -1.39 3.33 -0.18 4.25 -0.84 3.62 -3.08 0.04 1.38 -1.69 -5.41 -1.12 5.92 3.83 1.19 -3.91 -0.07 -0.17 -0.25 1.55 0.66 -2.21 1.55 -17.06 0.18 4.99 25.79 -0.90 7.87 0.46 -8.92 0.06 21.91 4.75 -25.71 14.81 0.49 -4.27 -21.68 -3.10 -11.59 -2.10 -6.72 -0.24 -19.87 -3.38 25.74 0.43 11.15 -0.15 -0.35 -9.41 -0.39 
0.9031 36.4992 -59.7200 -0.11 0.26 0.47 -1.61 -1.33 3.27 -0.18 4.19 -0.82 3.68 -3.14 0.04 1.33 -1.69 -5.48 -1.11 5.98 3.77 1.19 -3.98 -0.07 -0.09 -0.29 1.54 0.57 -2.20 1.54 -17.00 0.19 4.95 25.77 -0.89 7.84 0.45 -8.90 0.06 21.92 4.94 -25.60 14.80 0.47 -4.30 -21.68 -3.13 -11.45 -2.02 -6.71 -0.23 -20.31 -3.02 25.73 0.38 11.13 -0.16 -0.35 -9.40 -0.42 
0.8989 36.5015 -59.6702 -0.16 0.30 0.53 -1.51 -1.29 3.36 -0.27 4.21 -0.95 3.78 -3.23 0.03 1.41 -1.70 -5.45 -1.16 6.07 3.52 1.35 -4.02 -0.07 0.07 -0.30 1.52 0.44 -2.21 1.52 -17.03 0.15 5.09 25.88 -0.98 7.80 0.42 -8.85 0.05 21.88 4.87 -25.52 14.86 0.47 -4.32 -21.74 -3.16 -11.28 -1.95 -6.70 -0.22 -20.54 -2.73 25.80 0.38 11.11 -0.18 -0.39 -9.41 -0.46 
0.8845 36.5016 -59.6145 -0.24 0.33 0.58 -1.36 -1.25 3.50 -0.34 4.29 -1.14 3.91 -3.38 0.04 1.55 -1.72 -5.35 -1.23 6.28 3.20 1.50 -4.16 -0.07 0.20 -0.32 1.48 0.38 -2.21 1.48 -17.09 0.12 5.17 25.97 -1.04 7.84 0.44 -8.84 0.05 21.85 4.86 -25.54 14.84 0.49 -4.25 -21.75 -3.14 -11.26 -1.97 -6.64 -0.22 -20.37 -2.95 25.88 0.36 11.14 -0.20 -0.40 -9.46 -0.51 
0.8663 36.5044 -59.5475 -0.30 0.30 0.66 -1.24 -1.14 3.61 -0.39 4.34 -1.30 3.86 -3.53 0.04 1.67 -1.69 -5.28 -1.29 6.51 2.94 1.66 -4.25 -0.07 0.30 -0.30 1.44 0.30 -2.19 1.44 -17.05 0.12 5.16 25.95 -1.07 7.82 0.43 -8.86 0.05 21.92 4.73 -25.28 14.86 0.50 -4.23 -21.79 -3.15 -11.31 -1.97 -6.62 -0.22 -20.24 -3.12 25.74 0.35 11.21 -0.23 -0.24 -9.52 -0.62 
0.8511 36.5054 -59.4794 -0.29 0.29 0.76 -1.19 -1.02 3.67 -0.45 4.34 -1.40 3.95 -3.59 0.03 1.72 -1.63 -5.26 -1.36 6.61 2.73 1.73 -4.33 -0.07 0.27 -0.27 1.39 0.32 -2.19 1.39 -17.06 0.13 5.14 25.96 -1.11 7.69 0.39 -8.87 0.05 22.12 4.47 -24.98 14.84 0.50 -4.23 -21.81 -3.16 -11.35 -1.97 -6.68 -0.22 -20.22 -3.17 25.69 0.27 11.26 -0.22 -0.02 -9.40 -0.69 
0.8311 36.5060 -59.4113 -0.30 0.30 0.85 -1.14 -0.92 3.75 -0.51 4.33 -1.47 4.07 -3.62 0.03 1.82 -1.52 -5.20 -1.43 6.55 2.50 1.73 -4.40 -0.07 0.27 -0.30 1.35 0.30 -2.14 1.35 -17.01 0.16 5.06 25.90 -1.14 7.73 0.42 -8.96 0.05 22.11 4.41 -25.14 14.85 0.49 -4.25 -21.85 -3.21 -11.40 -2.01 -6.69 -0.23 -20.11 -3.30 25.84 0.26 11.27 -0.21 0.00 -9.34 -0.66 
0.8014 36.5073 -59.3452 -0.35 0.36 0.95 -1.01 -0.89 3.87 -0.59 4.36 -1.60 4.19 -3.67 0.03 1.97 -1.41 -5.09 -1.51 6.39 2.20 1.68 -4.44 -0.08 0.28 -0.32 1.29 0.37 -2.20 1.30 -17.07 0.19 5.01 25.96 -1.06 7.62 0.43 -9.16 0.05 21.86 4.68 -25.67 14.82 0.51 -4.20 -21.88 -3.14 -11.39 -2.04 -6.76 -0.23 -20.08 -3.38 25.86 0.17 11.37 -0.18 0.01 -9.34 -0.58 
0.7693 36.5062 -59.2724 -0.37 0.37 1.03 -0.92 -0.77 3.98 -0.64 4.33 -1.72 4.30 -3.68 0.03 2.07 -1.22 -5.04 -1.54 6.23 1.96 1.76 -4.44 -0.08 0.18 -0.31 1.24 0.49 -2.25 1.24 -17.27 0.20 5.00 26.19 -1.06 7.38 0.36 -9.45 0.04 22.10 5.31 -25.35 14.75 0.52 -4.18 -21.87 -3.14 -11.32 -2.06 -6.79 -0.24 -20.08 -3.21 26.00 0.11 11.49 -0.13 -0.03 -9.23 -0.49 
0.7407 36.5050 -59.2101 -0.34 0.45 1.01 -0.92 -0.73 3.99 -0.64 4.29 -1.68 4.39 -3.67 0.03 2.11 -1.19 -5.00 -1.58 6.20 1.92 1.81 -4.47 -0.09 0.01 -0.32 1.24 0.40 -2.23 1.24 -17.27 0.17 5.05 26.39 -1.50 7.03 0.17 -9.43 0.01 23.17 6.05 -23.16 14.73 0.50 -4.23 -21.80 -3.19 -11.25 -2.05 -6.75 -0.23 -20.02 -3.19 26.12 0.33 11.48 -0.13 -0.17 -9.03 -0.50 
